<?xml version="1.0" encoding="utf-8"?>
<!-- Generator: Adobe Illustrator 26.3.1, SVG Export Plug-In . SVG Version: 6.00 Build 0)  -->
<svg version="1.1" id="Layer_1" xmlns="http://www.w3.org/2000/svg" xmlns:xlink="http://www.w3.org/1999/xlink" x="0px" y="0px"
	 viewBox="0 0 636 234.3" style="enable-background:new 0 0 636 234.3;" xml:space="preserve">
<style type="text/css">
	.st0{fill:#C5E4C6;}
	.st1{fill:#28306D;}
	.st2{fill:#FFFFFF;}
	.st3{fill:#F7976B;}
	.st4{fill:#E9C1DB;}
	.st5{fill:#FEE56C;}
	.st6{fill:#B4ACD5;}
</style>
<g>
	<g>
		<g>
			<path class="st1" d="M573.6,11.3v17.1c-16.7-10.9-37.8-17.1-62.7-17.1c-66.4,0-106.4,44.1-106.4,106.6
				c0,63,40.1,106.2,106.4,106.2c23.7,0,46-6.5,62.7-16.7v16.7h43V11.3H573.6z M510.9,192.3c-43.8,0-63.9-32.7-63.9-74.4
				c0-42.1,20-74.4,63.9-74.4c37.4,0,57.8,24,62.7,57.5v33.6C568.7,168,548.3,192.3,510.9,192.3z"/>
			<path class="st1" d="M125.9,10.2c-66.4,0-106.4,44.3-106.4,107.2c0,63.3,40.1,106.8,106.4,106.8S232.3,180.2,232.3,117
				C232.3,54.1,192.2,10.2,125.9,10.2z M125.9,192.1C82,192.1,62,159.3,62,117.4c0-42.3,20-74.8,63.9-74.8
				c43.4,0,63.9,32.4,63.9,74.8C189.7,159.3,169.3,192.1,125.9,192.1z"/>
			<polygon class="st1" points="377.5,16.4 322.9,176.9 322,176.9 266.5,16.4 222.7,16.4 298.6,224.2 344.6,224.2 420.5,16.4 			"/>
		</g>
	</g>
</g>
</svg>
